<svg xmlns="http://www.w3.org/2000/svg" xmlns:xlink="http://www.w3.org/1999/xlink"><symbol id="arrow-right" viewBox="0 0 451.846 451.847">
<g>
	<path d="M345.441,248.292L151.154,442.573c-12.359,12.365-32.397,12.365-44.75,0c-12.354-12.354-12.354-32.391,0-44.744
		L278.318,225.92L106.409,54.017c-12.354-12.359-12.354-32.394,0-44.748c12.354-12.359,32.391-12.359,44.75,0l194.287,194.284
		c6.177,6.18,9.262,14.271,9.262,22.366C354.708,234.018,351.617,242.115,345.441,248.292z"/>
</g>
<g>
</g>
<g>
</g>
<g>
</g>
<g>
</g>
<g>
</g>
<g>
</g>
<g>
</g>
<g>
</g>
<g>
</g>
<g>
</g>
<g>
</g>
<g>
</g>
<g>
</g>
<g>
</g>
<g>
</g>
</symbol><symbol id="cart" viewBox="0 0 512 512">
<g>
	<path style="fill-rule:evenodd;clip-rule:evenodd;" d="M482.32,167h-24.457L343.156,57.129c6.844-14.879,4.138-33.069-8.121-45.328   c-15.734-15.734-41.238-15.734-56.972,0c-15.734,15.734-15.734,41.238,0,56.972c11.722,11.722,28.867,14.709,43.355,8.964   L414.609,167H97.652l93.19-89.261c4.601,1.829,9.618,2.835,14.87,2.835c22.247,0,40.287-18.04,40.287-40.287S227.96,0,205.713,0   c-22.247,0-40.287,18.04-40.287,40.287c0,6.012,1.32,11.716,3.681,16.84L54.398,167H29.68C13.326,167,0,180.325,0,196.679v28.641   C0,241.675,13.326,255,29.68,255h452.64c16.354,0,29.68-13.326,29.68-29.68v-28.641C512,180.326,498.674,167,482.32,167z"/>
	<path style="fill-rule:evenodd;clip-rule:evenodd;" d="M329.639,285.001H49.514c12.375,54.072,24.79,108.135,37.197,162.199   c4.673,20.363,22.296,34.8,43.105,34.8h158.866c-5.527-8.033-10.262-16.723-14.084-25.951   C248.486,393.011,272.229,320.544,329.639,285.001z M197.999,308.5c8.262,0,15,6.738,15,15c0,8.262-6.739,15-15,15   c-8.262,0-15-6.739-15-15C182.999,315.238,189.738,308.5,197.999,308.5z M108,398.5c-8.262,0-15-6.739-15-15s6.738-15,15-15   c8.262,0,15,6.738,15,15S116.262,398.5,108,398.5z M138,458.5c-8.262,0-15-6.739-15-15c0-8.262,6.739-15,15-15   c8.262,0,15,6.738,15,15C153,451.762,146.261,458.5,138,458.5z M138,338.5c-8.262,0-15-6.739-15-15c0-8.262,6.739-15,15-15   c8.262,0,15,6.738,15,15C153,331.762,146.261,338.5,138,338.5z M168.002,398.5c-8.262,0-15-6.739-15-15s6.739-15,15-15   c8.262,0,15,6.738,15,15S176.264,398.5,168.002,398.5z M197.999,458.5c-8.262,0-15-6.739-15-15c0-8.262,6.738-15,15-15   c8.262,0,15,6.738,15,15C213,451.762,206.261,458.5,197.999,458.5z M228,398.5c-8.262,0-15-6.739-15-15s6.739-15,15-15   c8.262,0,15,6.738,15,15S236.262,398.5,228,398.5z M242.997,323.5c0-8.262,6.739-15,15-15s15,6.738,15,15c0,8.262-6.739,15-15,15   S242.997,331.762,242.997,323.5z"/>
	<path style="fill-rule:evenodd;clip-rule:evenodd;" d="M403,294c-60.196,0-109,48.804-109,109c0,60.196,48.804,109,109,109   c60.196,0,109-48.804,109-109C512,342.804,463.196,294,403,294z M441.528,418h-23.529v23.528c0,8.284-6.716,15-15,15   s-15-6.716-15-15V418h-23.528c-8.284,0-15-6.716-15-15s6.716-15,15-15h23.528v-23.529c0-8.284,6.716-15,15-15s15,6.716,15,15V388   h23.529c8.284,0,15,6.716,15,15S449.812,418,441.528,418z"/>
</g>















</symbol><symbol id="facebook" viewBox="0 0 512 512"><path d="m437 0h-362c-41.351562 0-75 33.648438-75 75v362c0 41.351562 33.648438 75 75 75h151v-181h-60v-90h60v-61c0-49.628906 40.371094-90 90-90h91v90h-91v61h91l-15 90h-76v181h121c41.351562 0 75-33.648438 75-75v-362c0-41.351562-33.648438-75-75-75zm0 0"/></symbol><symbol id="footer-arrow" viewBox="0 0 213.333 213.333">
<g>
	<g>
		<polygon points="0,53.333 106.667,160 213.333,53.333 		"/>
	</g>
</g>
<g>
</g>
<g>
</g>
<g>
</g>
<g>
</g>
<g>
</g>
<g>
</g>
<g>
</g>
<g>
</g>
<g>
</g>
<g>
</g>
<g>
</g>
<g>
</g>
<g>
</g>
<g>
</g>
<g>
</g>
</symbol><symbol id="instagram" viewBox="0 0 438.536 438.536">
<g>
	<path d="M421.981,16.562C410.941,5.519,397.711,0,382.298,0H56.248C40.83,0,27.604,5.521,16.561,16.562
		C5.52,27.6,0.001,40.828,0.001,56.243V382.29c0,15.413,5.518,28.644,16.56,39.683c11.043,11.04,24.272,16.563,39.687,16.563
		h326.046c15.41,0,28.644-5.523,39.684-16.563c11.043-11.039,16.557-24.27,16.557-39.683V56.243
		C438.534,40.825,433.021,27.604,421.981,16.562z M157.462,158.025c17.224-16.652,37.924-24.982,62.097-24.982
		c24.36,0,45.153,8.33,62.381,24.982c17.228,16.655,25.837,36.785,25.837,60.386c0,23.598-8.609,43.729-25.837,60.379
		c-17.228,16.659-38.014,24.988-62.381,24.988c-24.172,0-44.87-8.336-62.097-24.988c-17.228-16.652-25.841-36.781-25.841-60.379
		C131.621,194.81,140.234,174.681,157.462,158.025z M388.865,370.589c0,4.945-1.718,9.083-5.141,12.416
		c-3.433,3.33-7.519,4.996-12.282,4.996h-305.2c-4.948,0-9.091-1.666-12.419-4.996c-3.333-3.326-4.998-7.471-4.998-12.416V185.575
		H89.08c-3.805,11.993-5.708,24.462-5.708,37.402c0,36.553,13.322,67.715,39.969,93.511c26.65,25.786,58.721,38.685,96.217,38.685
		c24.744,0,47.583-5.903,68.527-17.703c20.937-11.807,37.486-27.839,49.676-48.112c12.183-20.272,18.274-42.4,18.274-66.38
		c0-12.94-1.91-25.406-5.715-37.402h38.547v185.014H388.865z M388.865,115.626c0,5.52-1.903,10.184-5.716,13.99
		c-3.805,3.809-8.466,5.711-13.989,5.711h-49.676c-5.517,0-10.185-1.903-13.99-5.711c-3.806-3.806-5.708-8.47-5.708-13.99V68.522
		c0-5.33,1.902-9.945,5.708-13.848c3.806-3.901,8.474-5.854,13.99-5.854h49.676c5.523,0,10.185,1.952,13.989,5.854
		c3.812,3.903,5.716,8.518,5.716,13.848V115.626z"/>
</g>
<g>
</g>
<g>
</g>
<g>
</g>
<g>
</g>
<g>
</g>
<g>
</g>
<g>
</g>
<g>
</g>
<g>
</g>
<g>
</g>
<g>
</g>
<g>
</g>
<g>
</g>
<g>
</g>
<g>
</g>
</symbol><symbol id="logo" viewBox="0 0 158 54">
<path d="M30.52 24.92H29.36C28.28 27.4 27.24 29.32 25.88 30.56C24.24 32.04 22.4 32.76 19.08 32.76C16.48 32.76 15.68 32.16 15.68 30.44V11.88C15.68 8.6 16.2 8.08 19.68 7.92V6.92L5.76 6.96V7.96C8.48 8.12 9.2 8.68 9.2 10.96V30.08C9.2 32.2 8.68 32.64 5.76 33V34H28.84L30.52 24.92ZM59.9616 34V33C58.3216 33 57.6016 32.12 55.5616 27.28L46.6816 6.4H45.5616L36.7216 28.2C35.2016 31.96 34.6016 32.68 32.7616 33V34H40.8416V33C38.4816 32.84 37.6016 32.4 37.6016 31.36C37.6016 30.4 38.3616 28.72 38.8416 27.48L39.3616 26.12H48.3616C49.7216 29.28 50.2016 30.68 50.2016 31.56C50.2016 32.44 49.6816 32.76 48.3616 32.88L47.0816 33V34H59.9616ZM47.7616 24.56H39.9616L43.7216 14.84L47.7616 24.56ZM85.7337 6.96H77.2137V7.96C80.0537 8.16 80.6537 8.44 80.6537 9.72C80.6537 10.36 80.5338 10.8 79.8537 12.56L74.7737 25.72L69.2537 12.36C68.4537 10.44 68.3337 10.08 68.3337 9.48C68.3337 8.56 68.9337 8.12 70.4537 8.04L71.7737 7.96V6.96H58.3337V7.96C60.3337 8.24 60.7337 8.52 61.6937 10.76L71.9337 34.72H73.0137L82.1337 11.24C83.0938 8.76 83.6538 8.24 85.7337 7.96V6.96ZM113.001 25.68H111.881C110.681 28.28 109.961 29.48 108.601 30.6C106.721 32.16 104.441 32.76 101.321 32.76C98.7209 32.76 98.0009 32.24 98.0009 30.52V20.84C102.361 20.84 104.081 22.28 104.481 27.04H105.521V13.52H104.481C104.001 18.16 102.241 19.44 98.0009 19.48V10.48C98.0009 8.96 98.5209 8.32 100.601 8.32C107.121 8.32 109.161 9.64 110.081 15H111.081V6.96H88.0009V7.96C90.7609 8.12 91.5209 8.76 91.5209 10.8V29.96C91.5209 32.04 90.9609 32.68 88.0009 33V34H111.401L113.001 25.68ZM143.481 34V33C142.761 33 142.081 32.64 141.721 32.12L133.761 20.84C136.081 20.2 137.121 19.56 138.241 18.56C139.401 17.48 140.041 15.64 140.041 13.84C140.041 9.24 136.001 6.96 128.201 6.96H115.881V7.96C118.841 8.16 119.401 8.84 119.401 11.96V29.2C119.401 32.36 119.001 32.64 115.881 33V34H129.401V33C126.281 32.6 125.881 32.24 125.881 29.32V21.48H127.001L135.281 34H143.481ZM125.881 10.12C125.881 8.8 126.441 8.32 128.001 8.32C131.721 8.32 133.201 10 133.201 14.24C133.201 19.12 131.121 20.16 125.881 20.2V10.12ZM159.308 34V33C156.268 32.8 155.508 32.36 155.508 29.76V10.96C155.508 8.72 156.348 8.08 159.308 7.96V6.96H145.308V7.96C148.188 8.16 149.028 8.72 149.028 10.96V29.76C149.028 32.24 148.308 32.72 145.308 33V34H159.308Z"/>
<path d="M12.698 39.088H14.224L17.108 49H15.092L14.476 46.732H10.178L8.974 49H7L12.698 39.088ZM14.07 45.22L13.118 41.188L10.99 45.22H14.07ZM23.7955 44.296C23.6275 44.0907 23.4408 43.9273 23.2355 43.806C23.0395 43.6847 22.8295 43.624 22.6055 43.624C22.2975 43.624 22.0128 43.68 21.7515 43.792C21.4995 43.904 21.2755 44.0533 21.0795 44.24C20.8835 44.4267 20.7202 44.6413 20.5895 44.884C20.4682 45.1267 20.3888 45.3787 20.3515 45.64C20.3142 45.9013 20.3235 46.1533 20.3795 46.396C20.4355 46.6387 20.5335 46.8533 20.6735 47.04C20.8228 47.2267 21.0095 47.376 21.2335 47.488C21.4668 47.6 21.7375 47.656 22.0455 47.656C22.3068 47.656 22.5542 47.6047 22.7875 47.502C23.0302 47.39 23.2448 47.2313 23.4315 47.026L24.3835 48.23C24.1875 48.398 23.9728 48.5427 23.7395 48.664C23.5062 48.7853 23.2728 48.8833 23.0395 48.958C22.8062 49.0327 22.5822 49.084 22.3675 49.112C22.1622 49.1493 21.9848 49.168 21.8355 49.168C21.3315 49.168 20.8648 49.084 20.4355 48.916C20.0155 48.748 19.6608 48.51 19.3715 48.202C19.0915 47.894 18.8862 47.5253 18.7555 47.096C18.6248 46.6573 18.5968 46.172 18.6715 45.64C18.7462 45.108 18.9095 44.6273 19.1615 44.198C19.4135 43.7593 19.7262 43.386 20.0995 43.078C20.4728 42.77 20.8928 42.532 21.3595 42.364C21.8355 42.196 22.3255 42.112 22.8295 42.112C23.2588 42.112 23.6788 42.196 24.0895 42.364C24.5002 42.5227 24.8408 42.7793 25.1115 43.134L23.7955 44.296ZM31.0394 44.296C30.8714 44.0907 30.6848 43.9273 30.4794 43.806C30.2834 43.6847 30.0734 43.624 29.8494 43.624C29.5414 43.624 29.2568 43.68 28.9954 43.792C28.7434 43.904 28.5194 44.0533 28.3234 44.24C28.1274 44.4267 27.9641 44.6413 27.8334 44.884C27.7121 45.1267 27.6328 45.3787 27.5954 45.64C27.5581 45.9013 27.5674 46.1533 27.6234 46.396C27.6794 46.6387 27.7774 46.8533 27.9174 47.04C28.0668 47.2267 28.2534 47.376 28.4774 47.488C28.7108 47.6 28.9814 47.656 29.2894 47.656C29.5508 47.656 29.7981 47.6047 30.0314 47.502C30.2741 47.39 30.4888 47.2313 30.6754 47.026L31.6274 48.23C31.4314 48.398 31.2168 48.5427 30.9834 48.664C30.7501 48.7853 30.5168 48.8833 30.2834 48.958C30.0501 49.0327 29.8261 49.084 29.6114 49.112C29.4061 49.1493 29.2288 49.168 29.0794 49.168C28.5754 49.168 28.1088 49.084 27.6794 48.916C27.2594 48.748 26.9048 48.51 26.6154 48.202C26.3354 47.894 26.1301 47.5253 25.9994 47.096C25.8688 46.6573 25.8408 46.172 25.9154 45.64C25.9901 45.108 26.1534 44.6273 26.4054 44.198C26.6574 43.7593 26.9701 43.386 27.3434 43.078C27.7168 42.77 28.1368 42.532 28.6034 42.364C29.0794 42.196 29.5694 42.112 30.0734 42.112C30.5028 42.112 30.9228 42.196 31.3334 42.364C31.7441 42.5227 32.0848 42.7793 32.3554 43.134L31.0394 44.296ZM34.7553 46.228C34.746 46.48 34.7787 46.704 34.8533 46.9C34.9373 47.096 35.0493 47.264 35.1893 47.404C35.3293 47.5347 35.4973 47.6373 35.6933 47.712C35.8893 47.7867 36.104 47.824 36.3373 47.824C36.7573 47.824 37.1213 47.74 37.4293 47.572C37.7467 47.3947 38.0267 47.1753 38.2693 46.914L39.3473 47.824C38.89 48.3093 38.4047 48.6547 37.8913 48.86C37.378 49.0653 36.8553 49.168 36.3233 49.168C35.8193 49.168 35.3527 49.084 34.9233 48.916C34.5033 48.748 34.1487 48.51 33.8593 48.202C33.5793 47.894 33.374 47.5253 33.2433 47.096C33.1127 46.6573 33.0847 46.172 33.1593 45.64C33.234 45.108 33.3973 44.6273 33.6493 44.198C33.9013 43.7593 34.214 43.386 34.5873 43.078C34.9607 42.77 35.3807 42.532 35.8473 42.364C36.3233 42.196 36.8133 42.112 37.3173 42.112C38.26 42.112 38.974 42.4293 39.4593 43.064C39.9447 43.6893 40.108 44.59 39.9493 45.766L39.8793 46.228H34.7553ZM38.3813 44.968C38.4467 44.4733 38.3487 44.086 38.0873 43.806C37.826 43.5167 37.4293 43.372 36.8973 43.372C36.3933 43.372 35.9733 43.5167 35.6373 43.806C35.3013 44.0953 35.068 44.4827 34.9373 44.968H38.3813ZM45.8184 44.142C45.5571 43.6847 45.1511 43.456 44.6004 43.456C44.4884 43.456 44.3717 43.47 44.2504 43.498C44.1291 43.526 44.0171 43.568 43.9144 43.624C43.8117 43.68 43.7231 43.7547 43.6484 43.848C43.5831 43.9413 43.5411 44.0487 43.5224 44.17C43.4944 44.3753 43.5597 44.5247 43.7184 44.618C43.8864 44.7113 44.1011 44.7907 44.3624 44.856C44.6237 44.9213 44.9037 44.9913 45.2024 45.066C45.5104 45.1313 45.7857 45.2387 46.0284 45.388C46.2804 45.528 46.4764 45.724 46.6164 45.976C46.7657 46.228 46.8077 46.5733 46.7424 47.012C46.6864 47.4133 46.5511 47.754 46.3364 48.034C46.1311 48.3047 45.8791 48.524 45.5804 48.692C45.2817 48.86 44.9551 48.9813 44.6004 49.056C44.2457 49.1307 43.8957 49.168 43.5504 49.168C43.0277 49.168 42.5564 49.0933 42.1364 48.944C41.7164 48.7947 41.3617 48.524 41.0724 48.132L42.3464 47.082C42.5331 47.3247 42.7337 47.5253 42.9484 47.684C43.1724 47.8333 43.4617 47.908 43.8164 47.908C43.9377 47.908 44.0637 47.894 44.1944 47.866C44.3344 47.838 44.4651 47.7913 44.5864 47.726C44.7077 47.6607 44.8104 47.5813 44.8944 47.488C44.9784 47.3853 45.0297 47.2687 45.0484 47.138C45.0857 46.9047 45.0204 46.732 44.8524 46.62C44.6937 46.508 44.4837 46.4193 44.2224 46.354C43.9611 46.2793 43.6764 46.214 43.3684 46.158C43.0697 46.0927 42.7944 45.9947 42.5424 45.864C42.2904 45.724 42.0897 45.5327 41.9404 45.29C41.8004 45.0473 41.7631 44.7113 41.8284 44.282C41.8844 43.9087 42.0057 43.5867 42.1924 43.316C42.3884 43.036 42.6264 42.8073 42.9064 42.63C43.1864 42.4527 43.4944 42.322 43.8304 42.238C44.1664 42.154 44.5024 42.112 44.8384 42.112C45.2864 42.112 45.7157 42.1913 46.1264 42.35C46.5464 42.4993 46.8637 42.7607 47.0784 43.134L45.8184 44.142ZM52.5291 44.142C52.2678 43.6847 51.8618 43.456 51.3111 43.456C51.1991 43.456 51.0824 43.47 50.9611 43.498C50.8398 43.526 50.7278 43.568 50.6251 43.624C50.5224 43.68 50.4338 43.7547 50.3591 43.848C50.2938 43.9413 50.2518 44.0487 50.2331 44.17C50.2051 44.3753 50.2704 44.5247 50.4291 44.618C50.5971 44.7113 50.8118 44.7907 51.0731 44.856C51.3344 44.9213 51.6144 44.9913 51.9131 45.066C52.2211 45.1313 52.4964 45.2387 52.7391 45.388C52.9911 45.528 53.1871 45.724 53.3271 45.976C53.4764 46.228 53.5184 46.5733 53.4531 47.012C53.3971 47.4133 53.2618 47.754 53.0471 48.034C52.8418 48.3047 52.5898 48.524 52.2911 48.692C51.9924 48.86 51.6658 48.9813 51.3111 49.056C50.9564 49.1307 50.6064 49.168 50.2611 49.168C49.7384 49.168 49.2671 49.0933 48.8471 48.944C48.4271 48.7947 48.0724 48.524 47.7831 48.132L49.0571 47.082C49.2438 47.3247 49.4444 47.5253 49.6591 47.684C49.8831 47.8333 50.1724 47.908 50.5271 47.908C50.6484 47.908 50.7744 47.894 50.9051 47.866C51.0451 47.838 51.1758 47.7913 51.2971 47.726C51.4184 47.6607 51.5211 47.5813 51.6051 47.488C51.6891 47.3853 51.7404 47.2687 51.7591 47.138C51.7964 46.9047 51.7311 46.732 51.5631 46.62C51.4044 46.508 51.1944 46.4193 50.9331 46.354C50.6718 46.2793 50.3871 46.214 50.0791 46.158C49.7804 46.0927 49.5051 45.9947 49.2531 45.864C49.0011 45.724 48.8004 45.5327 48.6511 45.29C48.5111 45.0473 48.4738 44.7113 48.5391 44.282C48.5951 43.9087 48.7164 43.5867 48.9031 43.316C49.0991 43.036 49.3371 42.8073 49.6171 42.63C49.8971 42.4527 50.2051 42.322 50.5411 42.238C50.8771 42.154 51.2131 42.112 51.5491 42.112C51.9971 42.112 52.4264 42.1913 52.8371 42.35C53.2571 42.4993 53.5744 42.7607 53.7891 43.134L52.5291 44.142ZM55.1098 45.64C55.1845 45.108 55.3478 44.6273 55.5998 44.198C55.8518 43.7593 56.1645 43.386 56.5378 43.078C56.9111 42.77 57.3311 42.532 57.7978 42.364C58.2738 42.196 58.7638 42.112 59.2678 42.112C59.7718 42.112 60.2338 42.196 60.6538 42.364C61.0738 42.532 61.4238 42.77 61.7038 43.078C61.9931 43.386 62.2031 43.7593 62.3338 44.198C62.4645 44.6273 62.4925 45.108 62.4178 45.64C62.3431 46.172 62.1798 46.6573 61.9278 47.096C61.6758 47.5253 61.3631 47.894 60.9898 48.202C60.6258 48.51 60.2058 48.748 59.7298 48.916C59.2631 49.084 58.7778 49.168 58.2738 49.168C57.7698 49.168 57.3031 49.084 56.8738 48.916C56.4538 48.748 56.0991 48.51 55.8098 48.202C55.5298 47.894 55.3245 47.5253 55.1938 47.096C55.0631 46.6573 55.0351 46.172 55.1098 45.64ZM56.7898 45.64C56.7525 45.9013 56.7618 46.1533 56.8178 46.396C56.8738 46.6387 56.9718 46.8533 57.1118 47.04C57.2611 47.2267 57.4478 47.376 57.6718 47.488C57.9051 47.6 58.1758 47.656 58.4838 47.656C58.7918 47.656 59.0765 47.6 59.3378 47.488C59.5991 47.376 59.8278 47.2267 60.0238 47.04C60.2198 46.8533 60.3785 46.6387 60.4998 46.396C60.6211 46.1533 60.7005 45.9013 60.7378 45.64C60.7751 45.3787 60.7658 45.1267 60.7098 44.884C60.6538 44.6413 60.5511 44.4267 60.4018 44.24C60.2618 44.0533 60.0751 43.904 59.8418 43.792C59.6178 43.68 59.3518 43.624 59.0438 43.624C58.7358 43.624 58.4511 43.68 58.1898 43.792C57.9378 43.904 57.7138 44.0533 57.5178 44.24C57.3218 44.4267 57.1585 44.6413 57.0278 44.884C56.9065 45.1267 56.8271 45.3787 56.7898 45.64ZM64.9567 42.28H66.6367L66.4827 43.344H66.5107C66.7534 42.952 67.0614 42.6487 67.4347 42.434C67.8174 42.2193 68.2327 42.112 68.6807 42.112C68.7834 42.112 68.8814 42.1213 68.9747 42.14C69.0681 42.1587 69.1661 42.182 69.2687 42.21L69.0307 43.834C68.9001 43.7967 68.7694 43.7687 68.6387 43.75C68.5081 43.722 68.3774 43.708 68.2467 43.708C67.8547 43.708 67.5281 43.7827 67.2667 43.932C67.0054 44.072 66.7954 44.2353 66.6367 44.422C66.4874 44.6087 66.3801 44.7953 66.3147 44.982C66.2494 45.1687 66.2121 45.3087 66.2027 45.402L65.6987 49H64.0187L64.9567 42.28ZM70.9161 42.28H72.5961L71.6581 49H69.9781L70.9161 42.28ZM71.0001 39.998C71.0375 39.7273 71.1681 39.494 71.3921 39.298C71.6255 39.0927 71.8961 38.99 72.2041 38.99C72.5121 38.99 72.7595 39.088 72.9461 39.284C73.1328 39.4707 73.2028 39.7087 73.1561 39.998C73.1095 40.2873 72.9695 40.53 72.7361 40.726C72.5028 40.9127 72.2321 41.006 71.9241 41.006C71.6161 41.006 71.3735 40.908 71.1961 40.712C71.0281 40.5067 70.9628 40.2687 71.0001 39.998ZM75.7988 46.228C75.7895 46.48 75.8222 46.704 75.8968 46.9C75.9808 47.096 76.0928 47.264 76.2328 47.404C76.3728 47.5347 76.5408 47.6373 76.7368 47.712C76.9328 47.7867 77.1475 47.824 77.3808 47.824C77.8008 47.824 78.1648 47.74 78.4728 47.572C78.7902 47.3947 79.0702 47.1753 79.3128 46.914L80.3908 47.824C79.9335 48.3093 79.4482 48.6547 78.9348 48.86C78.4215 49.0653 77.8988 49.168 77.3668 49.168C76.8628 49.168 76.3962 49.084 75.9668 48.916C75.5468 48.748 75.1922 48.51 74.9028 48.202C74.6228 47.894 74.4175 47.5253 74.2868 47.096C74.1562 46.6573 74.1282 46.172 74.2028 45.64C74.2775 45.108 74.4408 44.6273 74.6928 44.198C74.9448 43.7593 75.2575 43.386 75.6308 43.078C76.0042 42.77 76.4242 42.532 76.8908 42.364C77.3668 42.196 77.8568 42.112 78.3608 42.112C79.3035 42.112 80.0175 42.4293 80.5028 43.064C80.9882 43.6893 81.1515 44.59 80.9928 45.766L80.9228 46.228H75.7988ZM79.4248 44.968C79.4902 44.4733 79.3922 44.086 79.1308 43.806C78.8695 43.5167 78.4728 43.372 77.9408 43.372C77.4368 43.372 77.0168 43.5167 76.6808 43.806C76.3448 44.0953 76.1115 44.4827 75.9808 44.968H79.4248ZM86.8619 44.142C86.6006 43.6847 86.1946 43.456 85.6439 43.456C85.5319 43.456 85.4152 43.47 85.2939 43.498C85.1726 43.526 85.0606 43.568 84.9579 43.624C84.8552 43.68 84.7666 43.7547 84.6919 43.848C84.6266 43.9413 84.5846 44.0487 84.5659 44.17C84.5379 44.3753 84.6032 44.5247 84.7619 44.618C84.9299 44.7113 85.1446 44.7907 85.4059 44.856C85.6672 44.9213 85.9472 44.9913 86.2459 45.066C86.5539 45.1313 86.8292 45.2387 87.0719 45.388C87.3239 45.528 87.5199 45.724 87.6599 45.976C87.8092 46.228 87.8512 46.5733 87.7859 47.012C87.7299 47.4133 87.5946 47.754 87.3799 48.034C87.1746 48.3047 86.9226 48.524 86.6239 48.692C86.3252 48.86 85.9986 48.9813 85.6439 49.056C85.2892 49.1307 84.9392 49.168 84.5939 49.168C84.0712 49.168 83.5999 49.0933 83.1799 48.944C82.7599 48.7947 82.4052 48.524 82.1159 48.132L83.3899 47.082C83.5766 47.3247 83.7772 47.5253 83.9919 47.684C84.2159 47.8333 84.5052 47.908 84.8599 47.908C84.9812 47.908 85.1072 47.894 85.2379 47.866C85.3779 47.838 85.5086 47.7913 85.6299 47.726C85.7512 47.6607 85.8539 47.5813 85.9379 47.488C86.0219 47.3853 86.0732 47.2687 86.0919 47.138C86.1292 46.9047 86.0639 46.732 85.8959 46.62C85.7372 46.508 85.5272 46.4193 85.2659 46.354C85.0046 46.2793 84.7199 46.214 84.4119 46.158C84.1132 46.0927 83.8379 45.9947 83.5859 45.864C83.3339 45.724 83.1332 45.5327 82.9839 45.29C82.8439 45.0473 82.8066 44.7113 82.8719 44.282C82.9279 43.9087 83.0492 43.5867 83.2359 43.316C83.4319 43.036 83.6699 42.8073 83.9499 42.63C84.2299 42.4527 84.5379 42.322 84.8739 42.238C85.2099 42.154 85.5459 42.112 85.8819 42.112C86.3299 42.112 86.7592 42.1913 87.1699 42.35C87.5899 42.4993 87.9072 42.7607 88.1219 43.134L86.8619 44.142ZM98.2752 48.076H98.2332C97.9345 48.4587 97.5845 48.7387 97.1832 48.916C96.7912 49.084 96.3712 49.168 95.9232 49.168C95.6152 49.168 95.3165 49.126 95.0272 49.042C94.7472 48.958 94.5045 48.832 94.2992 48.664C94.0939 48.496 93.9399 48.286 93.8372 48.034C93.7345 47.782 93.7065 47.488 93.7532 47.152C93.8279 46.6107 94.0285 46.186 94.3552 45.878C94.6819 45.5607 95.0692 45.3227 95.5172 45.164C95.9652 45.0053 96.4365 44.9073 96.9312 44.87C97.4352 44.8327 97.8972 44.814 98.3172 44.814H98.7372L98.7512 44.632C98.8165 44.212 98.7185 43.8993 98.4572 43.694C98.1959 43.4793 97.8412 43.372 97.3932 43.372C97.0385 43.372 96.6979 43.4373 96.3712 43.568C96.0445 43.6893 95.7552 43.8573 95.5032 44.072L94.7472 43.19C95.1672 42.8073 95.6385 42.532 96.1612 42.364C96.6932 42.196 97.2252 42.112 97.7572 42.112C98.2332 42.112 98.6252 42.168 98.9332 42.28C99.2505 42.3827 99.5025 42.518 99.6892 42.686C99.8852 42.854 100.025 43.05 100.109 43.274C100.193 43.4887 100.245 43.708 100.263 43.932C100.282 44.156 100.277 44.3753 100.249 44.59C100.231 44.7953 100.212 44.9773 100.193 45.136L99.6612 49H98.1492L98.2752 48.076ZM98.4712 45.99H98.1212C97.8879 45.99 97.6219 45.9993 97.3232 46.018C97.0339 46.0367 96.7539 46.0833 96.4832 46.158C96.2219 46.2233 95.9932 46.326 95.7972 46.466C95.6012 46.5967 95.4845 46.7833 95.4472 47.026C95.4285 47.1847 95.4472 47.32 95.5032 47.432C95.5592 47.5347 95.6385 47.6233 95.7412 47.698C95.8439 47.7727 95.9605 47.8287 96.0912 47.866C96.2219 47.894 96.3572 47.908 96.4972 47.908C97.0759 47.908 97.5239 47.7727 97.8412 47.502C98.1585 47.222 98.3499 46.844 98.4152 46.368L98.4712 45.99ZM102.897 42.28H104.493L104.339 43.358H104.367C104.572 43.022 104.857 42.7327 105.221 42.49C105.585 42.238 106.047 42.112 106.607 42.112C107.055 42.112 107.423 42.1867 107.713 42.336C108.011 42.4853 108.24 42.6813 108.399 42.924C108.557 43.1667 108.655 43.4467 108.693 43.764C108.73 44.0813 108.725 44.4127 108.679 44.758L108.091 49H106.411L106.887 45.598C106.915 45.4113 106.933 45.206 106.943 44.982C106.952 44.7487 106.929 44.534 106.873 44.338C106.826 44.1327 106.728 43.9647 106.579 43.834C106.429 43.694 106.21 43.624 105.921 43.624C105.641 43.624 105.398 43.6707 105.193 43.764C104.987 43.8573 104.81 43.9833 104.661 44.142C104.521 44.3007 104.404 44.4827 104.311 44.688C104.227 44.8933 104.171 45.108 104.143 45.332L103.639 49H101.959L102.897 42.28ZM115.948 47.992H115.92C115.612 48.4027 115.238 48.7013 114.8 48.888C114.37 49.0747 113.918 49.168 113.442 49.168C112.919 49.168 112.466 49.0793 112.084 48.902C111.701 48.7153 111.388 48.4633 111.146 48.146C110.903 47.8287 110.735 47.4553 110.642 47.026C110.548 46.5967 110.539 46.1347 110.614 45.64C110.679 45.1453 110.824 44.6833 111.048 44.254C111.272 43.8247 111.547 43.4513 111.874 43.134C112.21 42.8167 112.588 42.5693 113.008 42.392C113.437 42.2053 113.89 42.112 114.366 42.112C114.683 42.112 114.958 42.1447 115.192 42.21C115.425 42.2753 115.626 42.3593 115.794 42.462C115.962 42.5647 116.102 42.6767 116.214 42.798C116.326 42.91 116.419 43.022 116.494 43.134H116.536L117.208 38.416H118.888L117.404 49H115.808L115.948 47.992ZM112.294 45.64C112.256 45.9013 112.266 46.1533 112.322 46.396C112.378 46.6387 112.476 46.8533 112.616 47.04C112.765 47.2267 112.952 47.376 113.176 47.488C113.409 47.6 113.68 47.656 113.988 47.656C114.296 47.656 114.58 47.6 114.842 47.488C115.103 47.376 115.332 47.2267 115.528 47.04C115.724 46.8533 115.882 46.6387 116.004 46.396C116.125 46.1533 116.204 45.9013 116.242 45.64C116.279 45.3787 116.27 45.1267 116.214 44.884C116.158 44.6413 116.055 44.4267 115.906 44.24C115.766 44.0533 115.579 43.904 115.346 43.792C115.122 43.68 114.856 43.624 114.548 43.624C114.24 43.624 113.955 43.68 113.694 43.792C113.442 43.904 113.218 44.0533 113.022 44.24C112.826 44.4267 112.662 44.6413 112.532 44.884C112.41 45.1267 112.331 45.3787 112.294 45.64ZM125.913 38.416H127.593L126.921 43.134H126.963C127.065 43.022 127.191 42.91 127.341 42.798C127.49 42.6767 127.663 42.5647 127.859 42.462C128.064 42.3593 128.293 42.2753 128.545 42.21C128.797 42.1447 129.081 42.112 129.399 42.112C129.875 42.112 130.299 42.2053 130.673 42.392C131.046 42.5693 131.354 42.8167 131.597 43.134C131.839 43.4513 132.007 43.8247 132.101 44.254C132.194 44.6833 132.208 45.1453 132.143 45.64C132.068 46.1347 131.923 46.5967 131.709 47.026C131.503 47.4553 131.237 47.8287 130.911 48.146C130.584 48.4633 130.201 48.7153 129.763 48.902C129.324 49.0793 128.848 49.168 128.335 49.168C127.859 49.168 127.429 49.0747 127.047 48.888C126.664 48.7013 126.379 48.4027 126.193 47.992H126.165L126.025 49H124.429L125.913 38.416ZM130.463 45.64C130.5 45.3787 130.491 45.1267 130.435 44.884C130.379 44.6413 130.276 44.4267 130.127 44.24C129.987 44.0533 129.8 43.904 129.567 43.792C129.343 43.68 129.077 43.624 128.769 43.624C128.461 43.624 128.176 43.68 127.915 43.792C127.663 43.904 127.439 44.0533 127.243 44.24C127.047 44.4267 126.883 44.6413 126.753 44.884C126.631 45.1267 126.552 45.3787 126.515 45.64C126.477 45.9013 126.487 46.1533 126.543 46.396C126.599 46.6387 126.697 46.8533 126.837 47.04C126.986 47.2267 127.173 47.376 127.397 47.488C127.63 47.6 127.901 47.656 128.209 47.656C128.517 47.656 128.801 47.6 129.063 47.488C129.324 47.376 129.553 47.2267 129.749 47.04C129.945 46.8533 130.103 46.6387 130.225 46.396C130.346 46.1533 130.425 45.9013 130.463 45.64ZM138.063 48.076H138.021C137.722 48.4587 137.372 48.7387 136.971 48.916C136.579 49.084 136.159 49.168 135.711 49.168C135.403 49.168 135.104 49.126 134.815 49.042C134.535 48.958 134.292 48.832 134.087 48.664C133.882 48.496 133.728 48.286 133.625 48.034C133.522 47.782 133.494 47.488 133.541 47.152C133.616 46.6107 133.816 46.186 134.143 45.878C134.47 45.5607 134.857 45.3227 135.305 45.164C135.753 45.0053 136.224 44.9073 136.719 44.87C137.223 44.8327 137.685 44.814 138.105 44.814H138.525L138.539 44.632C138.604 44.212 138.506 43.8993 138.245 43.694C137.984 43.4793 137.629 43.372 137.181 43.372C136.826 43.372 136.486 43.4373 136.159 43.568C135.832 43.6893 135.543 43.8573 135.291 44.072L134.535 43.19C134.955 42.8073 135.426 42.532 135.949 42.364C136.481 42.196 137.013 42.112 137.545 42.112C138.021 42.112 138.413 42.168 138.721 42.28C139.038 42.3827 139.29 42.518 139.477 42.686C139.673 42.854 139.813 43.05 139.897 43.274C139.981 43.4887 140.032 43.708 140.051 43.932C140.07 44.156 140.065 44.3753 140.037 44.59C140.018 44.7953 140 44.9773 139.981 45.136L139.449 49H137.937L138.063 48.076ZM138.259 45.99H137.909C137.676 45.99 137.41 45.9993 137.111 46.018C136.822 46.0367 136.542 46.0833 136.271 46.158C136.01 46.2233 135.781 46.326 135.585 46.466C135.389 46.5967 135.272 46.7833 135.235 47.026C135.216 47.1847 135.235 47.32 135.291 47.432C135.347 47.5347 135.426 47.6233 135.529 47.698C135.632 47.7727 135.748 47.8287 135.879 47.866C136.01 47.894 136.145 47.908 136.285 47.908C136.864 47.908 137.312 47.7727 137.629 47.502C137.946 47.222 138.138 46.844 138.203 46.368L138.259 45.99ZM149.601 42.28L148.747 48.398C148.663 49.0047 148.509 49.5507 148.285 50.036C148.07 50.5307 147.781 50.946 147.417 51.282C147.062 51.6273 146.633 51.8933 146.129 52.08C145.625 52.2667 145.046 52.36 144.393 52.36C143.767 52.36 143.184 52.2807 142.643 52.122C142.111 51.9633 141.635 51.674 141.215 51.254L142.419 49.882C142.708 50.19 143.021 50.428 143.357 50.596C143.702 50.764 144.113 50.848 144.589 50.848C144.99 50.848 145.335 50.792 145.625 50.68C145.914 50.568 146.152 50.414 146.339 50.218C146.535 50.022 146.689 49.784 146.801 49.504C146.913 49.2333 146.992 48.93 147.039 48.594L147.095 48.104H147.067C146.777 48.4307 146.423 48.678 146.003 48.846C145.583 49.0047 145.163 49.084 144.743 49.084C144.239 49.084 143.791 48.9953 143.399 48.818C143.016 48.6313 142.699 48.384 142.447 48.076C142.204 47.768 142.031 47.404 141.929 46.984C141.826 46.564 141.807 46.116 141.873 45.64C141.938 45.1453 142.078 44.6833 142.293 44.254C142.507 43.8247 142.778 43.4513 143.105 43.134C143.441 42.8167 143.823 42.5693 144.253 42.392C144.691 42.2053 145.172 42.112 145.695 42.112C146.171 42.112 146.6 42.2053 146.983 42.392C147.365 42.5787 147.65 42.8773 147.837 43.288H147.865L148.005 42.28H149.601ZM145.821 43.624C145.522 43.624 145.242 43.6753 144.981 43.778C144.729 43.8713 144.505 44.0067 144.309 44.184C144.113 44.352 143.945 44.562 143.805 44.814C143.674 45.0567 143.59 45.3273 143.553 45.626C143.515 45.8967 143.529 46.1487 143.595 46.382C143.669 46.6153 143.781 46.8207 143.931 46.998C144.08 47.1753 144.267 47.3153 144.491 47.418C144.724 47.5207 144.981 47.572 145.261 47.572C145.569 47.572 145.853 47.5207 146.115 47.418C146.376 47.3153 146.605 47.18 146.801 47.012C146.997 46.8347 147.155 46.6247 147.277 46.382C147.407 46.1393 147.496 45.878 147.543 45.598C147.617 45.01 147.501 44.534 147.193 44.17C146.894 43.806 146.437 43.624 145.821 43.624ZM155.311 44.142C155.05 43.6847 154.644 43.456 154.093 43.456C153.981 43.456 153.864 43.47 153.743 43.498C153.622 43.526 153.51 43.568 153.407 43.624C153.304 43.68 153.216 43.7547 153.141 43.848C153.076 43.9413 153.034 44.0487 153.015 44.17C152.987 44.3753 153.052 44.5247 153.211 44.618C153.379 44.7113 153.594 44.7907 153.855 44.856C154.116 44.9213 154.396 44.9913 154.695 45.066C155.003 45.1313 155.278 45.2387 155.521 45.388C155.773 45.528 155.969 45.724 156.109 45.976C156.258 46.228 156.3 46.5733 156.235 47.012C156.179 47.4133 156.044 47.754 155.829 48.034C155.624 48.3047 155.372 48.524 155.073 48.692C154.774 48.86 154.448 48.9813 154.093 49.056C153.738 49.1307 153.388 49.168 153.043 49.168C152.52 49.168 152.049 49.0933 151.629 48.944C151.209 48.7947 150.854 48.524 150.565 48.132L151.839 47.082C152.026 47.3247 152.226 47.5253 152.441 47.684C152.665 47.8333 152.954 47.908 153.309 47.908C153.43 47.908 153.556 47.894 153.687 47.866C153.827 47.838 153.958 47.7913 154.079 47.726C154.2 47.6607 154.303 47.5813 154.387 47.488C154.471 47.3853 154.522 47.2687 154.541 47.138C154.578 46.9047 154.513 46.732 154.345 46.62C154.186 46.508 153.976 46.4193 153.715 46.354C153.454 46.2793 153.169 46.214 152.861 46.158C152.562 46.0927 152.287 45.9947 152.035 45.864C151.783 45.724 151.582 45.5327 151.433 45.29C151.293 45.0473 151.256 44.7113 151.321 44.282C151.377 43.9087 151.498 43.5867 151.685 43.316C151.881 43.036 152.119 42.8073 152.399 42.63C152.679 42.4527 152.987 42.322 153.323 42.238C153.659 42.154 153.995 42.112 154.331 42.112C154.779 42.112 155.208 42.1913 155.619 42.35C156.039 42.4993 156.356 42.7607 156.571 43.134L155.311 44.142Z"/>
</symbol><symbol id="magnifier" viewBox="0 0 512.005 512.005">
<g>
	<g>
		<path d="M505.749,475.587l-145.6-145.6c28.203-34.837,45.184-79.104,45.184-127.317c0-111.744-90.923-202.667-202.667-202.667
			S0,90.925,0,202.669s90.923,202.667,202.667,202.667c48.213,0,92.48-16.981,127.317-45.184l145.6,145.6
			c4.16,4.16,9.621,6.251,15.083,6.251s10.923-2.091,15.083-6.251C514.091,497.411,514.091,483.928,505.749,475.587z
			 M202.667,362.669c-88.235,0-160-71.765-160-160s71.765-160,160-160s160,71.765,160,160S290.901,362.669,202.667,362.669z"/>
	</g>
</g>
<g>
</g>
<g>
</g>
<g>
</g>
<g>
</g>
<g>
</g>
<g>
</g>
<g>
</g>
<g>
</g>
<g>
</g>
<g>
</g>
<g>
</g>
<g>
</g>
<g>
</g>
<g>
</g>
<g>
</g>
</symbol><symbol id="phone" viewBox="0 0 512 512">
<g>
	<g>
		<path d="M492.381,104.546c-19.646-27.033-54.051-51.433-96.876-68.703C352.91,18.667,303.454,9.168,256.245,9.101
			c-47.213-0.118-96.73,9.283-139.386,26.325c-42.9,17.141-77.386,41.435-97.104,68.404C0.817,129.732-4.641,157.651,3.97,184.569
			c5.587,17.461,21.882,29.211,40.558,29.238l63.951,0.06c0.022,0,0.043,0,0.064,0c12.752-0.001,24.733-5.583,32.875-15.322
			c8.056-9.635,11.392-22.227,9.156-34.549c-0.066-0.362-0.145-0.721-0.236-1.078l-3.365-13.082
			c18.634-8.891,60.854-26.069,109.075-25.796c48.186,0.247,90.377,17.415,109.033,26.31l-3.419,13.008
			c-0.097,0.369-0.18,0.739-0.248,1.112c-2.271,12.315,1.03,24.916,9.057,34.574c8.129,9.78,20.118,15.398,32.903,15.417
			l63.951,0.06c0.022,0,0.043,0,0.064,0c18.641-0.001,34.941-11.696,40.569-29.121C516.651,158.489,511.265,130.531,492.381,104.546
			z"/>
	</g>
</g>
<g>
	<g>
		<path d="M400.596,279.807l-47.69-50.075c-2.884-3.028-6.882-4.741-11.063-4.741h-30.82v-20.823c0-8.437-6.84-15.278-15.278-15.278
			c-8.438,0-15.278,6.84-15.278,15.278v20.823h-48.922v-20.823c0-8.437-6.84-15.278-15.278-15.278s-15.278,6.84-15.278,15.278
			v20.823h-30.819c-4.181,0-8.18,1.714-11.063,4.741l-47.69,50.075c-37.392,39.262-57.985,90.744-57.985,144.962v62.853
			c0,8.438,6.84,15.278,15.278,15.278h374.592c8.438,0,15.278-6.84,15.278-15.278v-62.853
			C458.581,370.551,437.988,319.07,400.596,279.807z M256.006,447.054c-44.09,0-79.959-35.87-79.959-79.96
			c0-44.089,35.87-79.959,79.959-79.959s79.959,35.87,79.959,79.959C335.965,411.184,300.095,447.054,256.006,447.054z"/>
	</g>
</g>
<g>
	<g>
		<path d="M256.006,317.691c-27.242,0-49.403,22.162-49.403,49.403c0,27.242,22.162,49.404,49.403,49.404
			s49.403-22.162,49.403-49.404C305.409,339.854,283.247,317.691,256.006,317.691z"/>
	</g>
</g>
<g>
</g>
<g>
</g>
<g>
</g>
<g>
</g>
<g>
</g>
<g>
</g>
<g>
</g>
<g>
</g>
<g>
</g>
<g>
</g>
<g>
</g>
<g>
</g>
<g>
</g>
<g>
</g>
<g>
</g>
</symbol><symbol id="vk" viewBox="0 0 24 24"><path d="m19.915 13.028c-.388-.49-.277-.708 0-1.146.005-.005 3.208-4.431 3.538-5.932l.002-.001c.164-.547 0-.949-.793-.949h-2.624c-.668 0-.976.345-1.141.731 0 0-1.336 3.198-3.226 5.271-.61.599-.892.791-1.225.791-.164 0-.419-.192-.419-.739v-5.105c0-.656-.187-.949-.74-.949h-4.126c-.419 0-.668.306-.668.591 0 .622.945.765 1.043 2.515v3.797c0 .832-.151.985-.486.985-.892 0-3.057-3.211-4.34-6.886-.259-.713-.512-1.001-1.185-1.001h-2.625c-.749 0-.9.345-.9.731 0 .682.892 4.073 4.148 8.553 2.17 3.058 5.226 4.715 8.006 4.715 1.671 0 1.875-.368 1.875-1.001 0-2.922-.151-3.198.686-3.198.388 0 1.056.192 2.616 1.667 1.783 1.749 2.076 2.532 3.074 2.532h2.624c.748 0 1.127-.368.909-1.094-.499-1.527-3.871-4.668-4.023-4.878z"/></symbol></svg>